<svg width="108" height="28" viewBox="0 0 108 28" fill="none" xmlns="http://www.w3.org/2000/svg">
<path d="M99.5234 19.889V6.81374H101.428V19.889H99.5234Z" fill="white"/>
<path d="M92.993 20C91.6245 20 90.5765 19.6425 89.849 18.9274C89.1339 18.1999 88.7764 17.0964 88.7764 15.6169V10.1427H90.6813V15.506C90.6813 16.0854 90.7614 16.5848 90.9217 17.004C91.0943 17.4232 91.3532 17.7437 91.6984 17.9657C92.0437 18.1876 92.4813 18.2986 93.0115 18.2986C93.5663 18.2986 94.0102 18.1876 94.3431 17.9657C94.6883 17.7314 94.9349 17.4047 95.0828 16.9855C95.2431 16.5663 95.3233 16.0731 95.3233 15.506V10.1427H97.2282V15.6169C97.2282 17.1211 96.8583 18.2308 96.1185 18.9459C95.3911 19.6486 94.3492 20 92.993 20Z" fill="white"/>
<path d="M82.8387 19.889V11.8441H81.2852V10.1427H82.8387V9.16248C82.8387 8.42272 82.9435 7.82475 83.1531 7.36856C83.375 6.90004 83.714 6.55482 84.1702 6.33289C84.6387 6.11096 85.249 6 86.0011 6H87.2772V7.68296H86.2231C85.8409 7.68296 85.5388 7.75077 85.3169 7.88639C85.1073 8.00969 84.9593 8.20079 84.873 8.45971C84.7867 8.7063 84.7435 9.00837 84.7435 9.36592V10.1427H87.2772V11.8441H84.7435V19.889H82.8387Z" fill="white"/>
<path d="M78.2099 20C77.1619 20 76.4098 19.7164 75.9537 19.1493C75.5098 18.5698 75.2879 17.7622 75.2879 16.7266V11.8441H73.7344V10.1427H75.2879V7.3131H77.1928V10.1427H80.1703V11.8441H77.1928V16.4122C77.1928 16.7574 77.2236 17.0718 77.2852 17.3554C77.3592 17.6389 77.4948 17.8609 77.6921 18.0212C77.8894 18.1814 78.1729 18.2677 78.5428 18.2801C78.8264 18.2801 79.073 18.2308 79.2826 18.1321C79.5045 18.0335 79.6833 17.9225 79.8189 17.7992L80.5587 19.2233C80.3244 19.4082 80.0778 19.5623 79.8189 19.6856C79.5723 19.7966 79.3134 19.8767 79.0422 19.926C78.7709 19.9754 78.4935 20 78.2099 20Z" fill="white"/>
<path d="M68.6524 20C68.1962 20 67.74 19.9569 67.2838 19.8705C66.8276 19.7842 66.4023 19.6301 66.0077 19.4082C65.6132 19.1863 65.2803 18.8904 65.009 18.5205C64.7378 18.1383 64.5652 17.6698 64.4912 17.1149H66.4331C66.5317 17.4108 66.7043 17.6513 66.9509 17.8362C67.2098 18.0211 67.4934 18.1568 67.8016 18.2431C68.1222 18.3294 68.4366 18.3725 68.7448 18.3725C68.9298 18.3725 69.1332 18.3602 69.3551 18.3355C69.5894 18.3109 69.8113 18.2554 70.0209 18.1691C70.2305 18.0828 70.4031 17.9595 70.5388 17.7992C70.6744 17.6266 70.7422 17.3985 70.7422 17.1149C70.7422 16.893 70.6806 16.7081 70.5573 16.5601C70.4463 16.4122 70.286 16.295 70.0764 16.2087C69.8791 16.1101 69.6387 16.0361 69.3551 15.9868C68.8003 15.8635 68.2024 15.7464 67.5612 15.6354C66.9324 15.5121 66.3776 15.3025 65.8968 15.0066C65.7241 14.8956 65.57 14.7724 65.4344 14.6367C65.2988 14.4888 65.1817 14.3223 65.083 14.1374C64.9844 13.9524 64.9104 13.7552 64.8611 13.5456C64.8118 13.336 64.7871 13.1079 64.7871 12.8613C64.7871 12.3558 64.8858 11.9243 65.083 11.5667C65.2926 11.2092 65.5762 10.9194 65.9337 10.6975C66.2913 10.4632 66.6982 10.2906 67.1544 10.1797C67.6105 10.0687 68.0914 10.0132 68.5969 10.0132C69.2503 10.0132 69.8422 10.118 70.3723 10.3276C70.9025 10.5372 71.3402 10.8454 71.6854 11.2523C72.0306 11.6592 72.2341 12.1709 72.2957 12.7873H70.5018C70.4278 12.4544 70.212 12.1893 69.8545 11.9921C69.5093 11.7825 69.0716 11.6777 68.5414 11.6777C68.3565 11.6777 68.153 11.69 67.9311 11.7147C67.7215 11.7393 67.5181 11.7948 67.3208 11.8811C67.1235 11.9674 66.9633 12.0907 66.84 12.251C66.7167 12.3989 66.655 12.5962 66.655 12.8428C66.655 13.0771 66.7105 13.2743 66.8215 13.4346C66.9448 13.5949 67.1174 13.7244 67.3393 13.823C67.5736 13.9216 67.8386 14.0018 68.1345 14.0634C68.5537 14.162 69.0038 14.2545 69.4846 14.3408C69.9778 14.4271 70.3785 14.5196 70.6867 14.6182C71.0936 14.7292 71.4388 14.8895 71.7224 15.0991C72.0183 15.3087 72.2402 15.5738 72.3882 15.8943C72.5485 16.2149 72.6286 16.6033 72.6286 17.0594C72.6286 17.6513 72.5115 18.1383 72.2772 18.5205C72.043 18.8904 71.7286 19.1863 71.334 19.4082C70.9518 19.6301 70.5203 19.7842 70.0394 19.8705C69.5709 19.9569 69.1086 20 68.6524 20Z" fill="white"/>
<path d="M58.4793 20C57.1108 20 56.0628 19.6425 55.3354 18.9274C54.6202 18.1999 54.2627 17.0964 54.2627 15.6169V10.1427H56.1676V15.506C56.1676 16.0854 56.2477 16.5848 56.408 17.004C56.5806 17.4232 56.8395 17.7437 57.1848 17.9657C57.53 18.1876 57.9677 18.2986 58.4978 18.2986C59.0527 18.2986 59.4965 18.1876 59.8294 17.9657C60.1746 17.7314 60.4212 17.4047 60.5692 16.9855C60.7295 16.5663 60.8096 16.0731 60.8096 15.506V10.1427H62.7145V15.6169C62.7145 17.1211 62.3446 18.2308 61.6048 18.9459C60.8774 19.6486 59.8356 20 58.4793 20Z" fill="white"/>
<path d="M47.2734 19.889V10.1427H49.0674L49.1598 11.5482C49.4064 11.166 49.69 10.8639 50.0106 10.642C50.3311 10.4201 50.6825 10.2598 51.0647 10.1612C51.4469 10.0625 51.8476 10.0132 52.2668 10.0132C52.3778 10.0132 52.4826 10.0132 52.5812 10.0132C52.6799 10.0132 52.7723 10.0132 52.8586 10.0132V11.8441H52.2668C51.5641 11.8441 50.9784 11.9859 50.5099 12.2695C50.0537 12.5531 49.7147 12.9476 49.4927 13.4531C49.2831 13.9586 49.1783 14.5381 49.1783 15.1915V19.889H47.2734Z" fill="white"/>
<path d="M40.1427 19.889V8.60766H36V6.81374H46.2272V8.60766H42.103V19.889H40.1427Z" fill="white"/>
<path d="M25.7271 5.82878C24.5826 4.67732 23.0605 4.04138 21.4411 4.04138C19.8217 4.04138 18.2995 4.67732 17.1551 5.82878L13.7741 9.23423L11.6573 11.3641L13.7704 13.4901L15.8872 11.3603L19.2719 7.95483C19.8516 7.37158 20.622 7.05173 21.4411 7.05173C22.2601 7.05173 23.0306 7.37158 23.6103 7.95483C24.807 9.15897 24.807 11.1195 23.6103 12.3236L19.6683 16.2897L16.0518 19.9323L15.9396 20.0451C14.8251 21.1627 13.0561 21.2418 11.8518 20.2709C11.792 20.2258 11.7359 20.1768 11.6798 20.1166C11.6498 20.0978 11.6237 20.0715 11.5975 20.0451C11.5601 20.0075 11.5227 19.9699 11.4928 19.9285L7.90612 16.3198C7.39375 18.3142 7.8949 20.5193 9.41333 22.0959L9.56293 22.2465C9.61903 22.3029 9.67887 22.3594 9.73871 22.412C10.8831 23.4393 12.3268 23.9548 13.7704 23.9548C14.5446 23.9548 15.3225 23.8043 16.0518 23.5108C16.7811 23.2098 17.4655 22.7657 18.0564 22.1712L18.2733 21.953L25.7271 14.4534C28.0907 12.0752 28.0907 8.20695 25.7271 5.82878Z" fill="#B1EF42"/>
<path d="M19.6685 16.2897C19.4105 15.3114 18.8944 14.3857 18.1352 13.6218L15.8874 11.3603L13.7744 9.23424L10.3149 5.75353C9.18915 4.62088 7.69316 4 6.10367 4C4.51418 4 3.01446 4.62088 1.89247 5.75353L1.74287 5.90405C-0.579654 8.24083 -0.579654 12.0414 1.74287 14.3782L9.41355 22.096L9.56314 22.2465C9.61924 22.3029 9.67908 22.3594 9.73892 22.412C10.8759 23.4694 12.3232 24 13.7744 24C15.3003 24 16.8262 23.413 17.9893 22.2465L18.1352 22.0997C18.1838 22.0508 18.2287 22.0019 18.2735 21.953C19.7246 20.3913 20.1921 18.2352 19.6685 16.2897ZM3.85969 12.2484C2.70404 11.0856 2.70404 9.19285 3.85969 8.0301L4.00555 7.88335C4.56655 7.31891 5.3108 7.01035 6.10367 7.01035C6.89655 7.01035 7.6408 7.31891 8.19806 7.88335L11.6575 11.3641L13.7706 13.4901L16.0183 15.7516C17.1628 16.9031 17.174 18.7695 16.052 19.9323C16.0408 19.9473 16.0296 19.9586 16.0183 19.9699L15.8725 20.1167C15.2928 20.6961 14.5373 20.9897 13.7744 20.9897C13.0899 20.9897 12.4018 20.7488 11.852 20.2709C11.7922 20.2258 11.7361 20.1731 11.68 20.1167L3.85969 12.2484Z" fill="#B1EF42"/>
</svg>
