<svg width="14" height="14" viewBox="0 0 14 14" fill="none" xmlns="http://www.w3.org/2000/svg">
<path d="M9.43359 1.06914L12.9281 4.60469C14.3609 6.05391 14.3609 8.38359 12.9281 9.83281L9.86562 12.9309C9.61133 13.1879 9.1957 13.1906 8.93867 12.9363C8.68164 12.682 8.67891 12.2664 8.9332 12.0094L11.993 8.91133C12.9199 7.97344 12.9199 6.4668 11.993 5.52891L8.50117 1.99336C8.24687 1.73633 8.24961 1.3207 8.50664 1.06641C8.76367 0.812109 9.1793 0.814844 9.43359 1.07188V1.06914ZM0 6.27539V2.1875C0 1.46289 0.587891 0.875 1.3125 0.875H5.40039C5.86523 0.875 6.31094 1.0582 6.63906 1.38633L11.2328 5.98008C11.9164 6.66367 11.9164 7.77109 11.2328 8.45469L7.58242 12.1051C6.89883 12.7887 5.79141 12.7887 5.10781 12.1051L0.514062 7.51133C0.183203 7.1832 0 6.74023 0 6.27539ZM3.9375 3.9375C3.9375 3.70544 3.84531 3.48288 3.68122 3.31878C3.51712 3.15469 3.29456 3.0625 3.0625 3.0625C2.83044 3.0625 2.60788 3.15469 2.44378 3.31878C2.27969 3.48288 2.1875 3.70544 2.1875 3.9375C2.1875 4.16956 2.27969 4.39212 2.44378 4.55622C2.60788 4.72031 2.83044 4.8125 3.0625 4.8125C3.29456 4.8125 3.51712 4.72031 3.68122 4.55622C3.84531 4.39212 3.9375 4.16956 3.9375 3.9375Z" fill="#F5FFFF"/>
</svg>
